<?xml version="1.0" standalone="no"?>
<!DOCTYPE svg PUBLIC "-//W3C//DTD SVG 20010904//EN"
 "http://www.w3.org/TR/2001/REC-SVG-20010904/DTD/svg10.dtd">
<svg version="1.0" xmlns="http://www.w3.org/2000/svg"
 width="225.000000pt" height="225.000000pt" viewBox="0 0 225.000000 225.000000"
 preserveAspectRatio="xMidYMid meet">

<g transform="translate(0.000000,225.000000) scale(0.100000,-0.100000)"
fill="#000000" stroke="none">
<path d="M44 2183 c11 -115 42 -948 52 -1408 3 -154 7 -334 9 -400 1 -66 3
-177 4 -247 1 -112 3 -128 18 -128 15 0 16 31 9 393 -3 215 -11 531 -16 702
-5 171 -14 463 -20 650 -15 480 -17 505 -42 505 -19 0 -20 -4 -14 -67z"/>
<path d="M1440 2238 c0 -4 5 -8 12 -8 6 0 8 -3 5 -6 -4 -4 -13 -1 -22 6 -12
10 -15 10 -15 -3 0 -9 -10 -21 -22 -28 -13 -6 -30 -20 -38 -30 -13 -15 -23
-17 -77 -10 -59 7 -63 6 -63 -13 0 -17 2 -18 10 -6 10 15 11 12 14 -22 1 -7 6
-17 11 -21 7 -6 6 -10 -2 -13 -7 -3 -9 -13 -6 -21 5 -13 2 -15 -12 -9 -10 3
-21 3 -24 -1 -3 -5 -24 -5 -46 -2 -22 3 -32 7 -22 8 10 0 16 5 12 11 -3 5 -12
7 -19 4 -7 -3 -18 2 -25 10 -14 17 -54 9 -47 -10 3 -8 0 -11 -10 -7 -7 3 -14
9 -14 14 0 5 -7 9 -15 9 -9 0 -12 6 -9 15 4 8 1 15 -5 15 -6 0 -11 -7 -11 -15
0 -18 -14 -19 -42 -4 -26 14 -52 -6 -28 -21 13 -8 12 -10 -2 -10 -10 0 -18 -5
-18 -12 0 -6 -9 -1 -20 12 -11 13 -20 19 -20 14 0 -5 -21 -9 -48 -9 -30 0 -46
4 -45 11 1 7 -9 15 -22 18 -13 3 -29 15 -35 26 -12 22 -18 24 -39 11 -12 -8
-12 -12 -2 -25 12 -14 10 -16 -7 -16 -12 0 -24 5 -27 10 -11 18 -26 10 -20
-10 4 -11 2 -20 -4 -20 -6 0 -11 7 -11 16 0 8 -5 12 -10 9 -5 -3 -10 -15 -10
-25 0 -26 -39 -47 -52 -29 -7 11 -11 11 -15 2 -2 -7 -13 -13 -24 -13 -18 0
-23 -10 -20 -37 1 -8 -5 -10 -14 -7 -17 7 -19 -4 -5 -26 5 -9 5 -19 -1 -27 -6
-7 -8 -17 -4 -23 3 -5 -1 -10 -9 -10 -8 0 -27 -12 -43 -27 -15 -16 -31 -27
-35 -26 -4 2 -8 -1 -8 -6 0 -5 12 -12 28 -14 l27 -4 -27 -2 c-28 -1 -38 -23
-17 -36 5 -4 8 -12 6 -18 -3 -7 5 -22 16 -34 13 -15 16 -23 8 -23 -10 0 -11
-10 -7 -34 4 -20 2 -37 -4 -41 -21 -13 -9 -32 29 -47 34 -14 40 -21 51 -66 6
-28 18 -56 26 -63 8 -6 14 -27 14 -45 0 -44 16 -43 37 0 8 19 26 39 39 45 25
11 300 15 317 4 6 -3 39 -5 74 -4 46 2 63 -1 64 -11 6 -110 3 -168 -11 -173
-13 -5 -13 -7 0 -16 11 -8 12 -12 2 -16 -6 -2 -10 -9 -7 -14 8 -11 -39 -23
-68 -16 -26 7 -152 -24 -169 -41 -8 -8 -12 -54 -13 -130 -2 -112 -3 -120 -35
-179 -18 -33 -44 -67 -57 -74 l-24 -13 25 -19 c14 -10 24 -23 20 -28 -3 -5 -1
-9 5 -9 6 0 8 -7 4 -15 -8 -22 27 -47 45 -33 10 8 17 7 29 -5 14 -14 12 -16
-22 -26 -21 -6 -42 -8 -47 -5 -11 7 -98 -18 -98 -27 0 -4 24 -11 53 -14 28 -4
77 -12 107 -19 48 -11 55 -16 55 -37 0 -25 -6 -26 -65 -18 -17 3 -25 -1 -28
-15 -5 -25 16 -38 55 -31 33 6 113 -26 113 -44 0 -12 -60 -57 -87 -65 -13 -4
-23 -11 -23 -15 0 -5 -20 -14 -45 -21 -29 -8 -45 -18 -45 -29 -1 -9 -8 -25
-18 -36 -21 -26 -117 -99 -157 -119 -54 -28 3 -19 119 19 83 27 112 33 127 25
10 -6 19 -15 19 -20 0 -10 -49 -50 -62 -50 -16 0 -173 -64 -179 -73 -3 -5 -9
-2 -12 7 -9 23 -34 20 -62 -9 -30 -29 -34 -61 -7 -50 9 4 44 9 77 12 35 2 87
16 130 35 128 55 154 55 140 2 -4 -16 -10 -23 -12 -16 -7 18 -30 15 -53 -8
-11 -11 -20 -22 -20 -25 0 -3 36 -5 80 -5 44 0 80 3 80 8 0 4 -6 16 -13 27
-17 24 -37 103 -37 142 0 16 -9 45 -19 66 l-19 37 22 0 c11 0 38 3 58 6 34 6
38 4 53 -27 30 -64 70 -136 93 -166 12 -17 22 -38 22 -46 0 -49 -13 -47 381
-47 266 0 369 3 369 11 0 8 4 8 13 1 8 -7 85 -11 205 -12 l192 0 0 1125 0
1125 -240 0 -240 0 -1 -117 c-1 -65 -1 -121 0 -126 1 -4 -9 -6 -21 -4 -13 2
-17 2 -9 0 12 -4 12 -6 0 -14 -9 -7 -4 -8 16 -3 23 4 27 3 15 -5 -13 -10 -13
-12 0 -21 8 -6 25 -8 37 -5 12 3 25 0 28 -5 4 -6 10 -8 15 -5 4 3 10 -2 14
-10 3 -8 13 -15 23 -15 15 0 16 2 3 10 -21 13 -6 12 25 -2 14 -6 25 -15 25
-20 0 -8 -25 -13 -45 -8 -5 1 -17 3 -25 5 -8 1 -14 8 -12 14 2 11 -12 16 -33
11 -38 -7 -84 -7 -80 1 4 5 14 9 23 9 9 0 1 8 -18 18 -22 12 -51 18 -80 16
-40 -2 -43 -1 -27 11 18 13 17 14 -2 20 -12 3 -21 12 -21 20 0 7 -8 16 -17 18
-15 4 -15 6 4 12 22 7 22 7 2 24 -21 18 -36 71 -19 71 13 0 0 25 -32 61 -22
25 -88 45 -88 27z m77 -53 c0 -8 -4 -15 -8 -15 -4 0 -9 7 -13 15 -3 9 0 15 8
15 7 0 13 -7 13 -15z m-67 -11 c0 -2 -9 -4 -21 -4 -11 0 -18 4 -14 10 5 8 35
3 35 -6z m-160 -34 c0 -5 -2 -10 -4 -10 -3 0 -8 5 -11 10 -3 6 -1 10 4 10 6 0
11 -4 11 -10z m30 -40 c0 -5 -7 -10 -16 -10 -8 0 -12 5 -9 10 3 6 10 10 16 10
5 0 9 -4 9 -10z m-552 -28 c2 -6 -6 -8 -20 -5 -13 3 -19 1 -13 -4 12 -10 16
-43 4 -43 -16 0 -27 33 -16 51 11 18 39 19 45 1z m774 -7 c0 -5 4 -18 9 -27 7
-14 6 -18 -7 -18 -10 0 -14 5 -10 15 3 9 0 15 -9 15 -8 0 -15 7 -15 16 0 17
31 16 32 -1z m-266 -14 c-13 -20 -16 -71 -4 -71 6 0 9 -2 7 -5 -3 -2 -18 0
-35 4 -16 5 -23 10 -16 10 6 1 12 7 12 14 0 21 24 66 32 60 5 -2 6 -8 4 -12z
m-436 5 c0 -3 -4 -8 -10 -11 -5 -3 -10 -1 -10 4 0 6 5 11 10 11 6 0 10 -2 10
-4z m563 -11 c-3 -9 -8 -14 -10 -11 -3 3 -2 9 2 15 9 16 15 13 8 -4z m-787 -7
c4 -7 3 -8 -4 -4 -7 4 -22 -4 -35 -19 -21 -26 -23 -26 -24 -6 -1 12 4 21 13
21 8 0 14 5 14 10 0 14 27 13 36 -2z m594 -24 c0 -2 -9 0 -20 6 -11 6 -20 13
-20 16 0 2 9 0 20 -6 11 -6 20 -13 20 -16z m274 -5 c-4 -7 6 -10 29 -8 20 2
39 0 43 -4 4 -4 0 -7 -9 -7 -19 0 -23 -15 -7 -25 6 -3 10 -1 10 6 0 7 2 10 5
7 10 -9 -7 -38 -22 -38 -8 0 -11 5 -8 10 3 6 -3 10 -14 10 -12 0 -21 5 -21 10
0 6 -11 10 -24 10 -31 0 -55 26 -29 33 34 9 54 7 47 -4z m-74 -29 c0 -13 -11
-13 -30 0 -12 8 -11 10 8 10 12 0 22 -4 22 -10z m291 -43 c-8 -8 -16 -7 -27 5
-14 14 -14 15 11 10 19 -3 23 -8 16 -15z m209 -57 c0 -5 -2 -10 -4 -10 -3 0
-8 5 -11 10 -3 6 -1 10 4 10 6 0 11 -4 11 -10z m-150 -32 c0 -3 -9 -4 -19 -1
-16 4 -17 8 -8 18 11 12 26 3 27 -17z m200 -80 c0 -11 -12 -10 -30 2 -12 7
-10 9 8 7 12 0 22 -5 22 -9z m-549 -617 c10 -2 5 -64 -6 -68 -6 -2 -25 10 -43
27 l-33 30 23 9 c13 5 30 7 38 5 8 -1 18 -3 21 -3z m259 -8 c45 -26 64 -80 57
-163 -3 -39 -13 -85 -21 -101 -14 -27 -14 -29 0 -19 8 7 18 10 22 6 4 -4 9
-102 11 -216 l3 -209 -38 -16 c-21 -9 -52 -15 -68 -13 -26 3 -32 10 -52 63
-12 33 -30 91 -40 129 -16 66 -16 69 2 79 32 18 109 95 102 102 -3 4 -23 -9
-45 -28 -48 -43 -62 -48 -95 -30 -31 15 -39 52 -12 49 35 -2 23 20 -18 36
l-43 17 40 -5 c48 -6 92 18 65 36 -22 15 -60 12 -66 -5 -7 -17 -24 -20 -24 -4
0 6 -11 24 -25 41 -19 23 -25 41 -25 79 0 42 3 49 20 49 11 0 20 6 20 13 0 16
77 70 89 63 5 -4 18 4 28 17 20 26 51 46 71 47 8 0 27 -8 42 -17z m-173 -39
c-3 -3 -12 -4 -19 -1 -8 3 -5 6 6 6 11 1 17 -2 13 -5z m-520 -45 c2 -24 -1
-30 -13 -25 -12 5 -15 2 -10 -9 5 -14 1 -13 -24 2 -30 17 -42 40 -16 30 8 -3
16 2 19 14 3 10 13 19 24 19 13 0 19 -8 20 -31z m28 -84 c39 -13 81 -25 95
-27 21 -2 24 -8 22 -31 -2 -16 -16 -50 -32 -76 -15 -26 -33 -64 -40 -83 -21
-56 -76 -70 -97 -25 -27 59 -57 247 -40 247 5 0 3 8 -4 17 -12 15 -12 16 6 9
11 -5 52 -19 90 -31z m914 -949 c-2 -2 -17 -6 -34 -10 -22 -5 -26 -4 -15 4 14
9 59 15 49 6z"/>
<path d="M1582 1107 c-31 -16 -42 -27 -42 -44 0 -35 44 -25 48 10 3 23 8 27
35 26 18 0 26 -3 19 -6 -10 -4 -8 -11 8 -28 12 -13 25 -47 32 -84 14 -77 33
-66 33 19 0 103 -53 145 -133 107z"/>
<path d="M1475 1003 c-3 -15 -2 -29 5 -33 6 -4 14 -26 17 -49 3 -24 9 -38 12
-32 5 7 16 5 35 -4 63 -33 119 -1 114 63 -3 33 -7 38 -48 53 -25 9 -64 19 -86
23 -39 5 -42 4 -49 -21z m138 -74 c13 -9 -11 -49 -29 -49 -8 0 -12 5 -9 10 3
6 2 10 -4 10 -6 0 -15 9 -22 21 -10 19 -9 20 12 14 23 -7 23 -7 7 18 -23 34
-10 42 15 9 12 -15 25 -30 30 -33z"/>
<path d="M1450 890 c0 -5 5 -10 10 -10 6 0 10 5 10 10 0 6 -4 10 -10 10 -5 0
-10 -4 -10 -10z"/>
<path d="M1648 862 c-16 -9 -28 -20 -28 -25 0 -5 14 1 30 13 17 12 30 23 30
26 0 6 -2 5 -32 -14z"/>
<path d="M1540 810 c-8 -5 -11 -12 -7 -16 4 -4 13 -2 19 4 15 15 7 24 -12 12z"/>
<path d="M1145 2160 c-3 -5 -3 -15 1 -22 5 -8 2 -9 -9 -5 -13 5 -17 1 -17 -14
0 -15 5 -19 15 -15 9 3 24 0 35 -6 25 -16 33 -7 24 26 -4 17 -12 25 -20 22 -8
-3 -11 0 -7 10 6 16 -12 20 -22 4z"/>
<path d="M1631 2014 c7 -8 21 -20 31 -25 17 -9 18 -8 9 9 -6 11 -20 22 -31 25
-18 5 -19 3 -9 -9z"/>
<path d="M530 1211 c-23 -6 -26 -12 -21 -41 0 -5 10 -10 21 -10 23 0 23 -3 11
-46 -7 -25 -5 -33 10 -42 15 -10 18 -8 21 11 2 12 10 23 19 25 12 2 15 -3 12
-21 -6 -32 2 -35 62 -28 45 5 50 9 50 31 1 28 -19 73 -38 87 -15 12 -100 43
-112 42 -6 -1 -21 -4 -35 -8z"/>
<path d="M576 1038 c3 -5 17 -8 31 -8 23 0 24 -2 12 -17 -13 -15 -11 -16 16
-9 31 8 55 23 55 36 0 4 -27 6 -59 6 -33 0 -57 -4 -55 -8z"/>
<path d="M768 563 c6 -2 18 -2 25 0 6 3 1 5 -13 5 -14 0 -19 -2 -12 -5z"/>
<path d="M2230 206 c0 -131 4 -206 10 -206 14 0 14 397 0 405 -7 4 -10 -65
-10 -199z"/>
<path d="M904 258 c-13 -20 -6 -93 16 -176 21 -79 23 -82 51 -82 34 0 33 -2
15 41 -7 19 -17 59 -20 89 -8 67 -26 102 -26 53 0 -18 -4 -33 -9 -33 -12 0
-24 74 -16 100 7 22 1 27 -11 8z"/>
</g>
</svg>
